<svg width="64" height="50" viewBox="0 0 64 50" fill="none" xmlns="http://www.w3.org/2000/svg">
<g clip-path="url(#clip0_299_902)">
<path d="M0 5C0 2.23858 2.23858 0 5 0H17.1145C28.1602 0 37.1145 8.95431 37.1145 20V40.6106C37.1145 43.372 34.8759 45.6106 32.1145 45.6106H20C8.95431 45.6106 0 36.6563 0 25.6106V5Z" fill="#2766CF" fill-opacity="0.12"/>
<path d="M39.3111 24.5918C44.0284 24.5918 47.8655 20.7548 47.8655 16.0379C47.8655 11.3221 44.0279 7.4856 39.3111 7.4856C34.5958 7.4856 30.7598 11.3221 30.7598 16.0379C30.7598 20.7547 34.5958 24.5918 39.3111 24.5918ZM39.3111 9.19098C43.0883 9.19098 46.1606 12.2628 46.1606 16.0384C46.1606 19.8151 43.0878 22.8874 39.3111 22.8874C35.536 22.8874 32.4646 19.8152 32.4646 16.0384C32.4646 12.2628 35.536 9.19098 39.3111 9.19098Z" fill="#2766CF" stroke="#2766CF" stroke-width="0.2"/>
<path d="M55.1588 20.5961L57.2105 22.3323C58.2606 23.2207 58.5334 24.6828 57.9762 25.8727L59.7712 27.7688L55.1588 20.5961ZM55.1588 20.5961C54.5502 20.0819 53.7781 19.8353 52.9852 19.9007ZM55.1588 20.5961L52.9852 19.9007ZM52.9852 19.9007C52.1908 19.9666 51.469 20.3383 50.9543 20.947C49.8928 22.2021 50.05 24.0881 51.3051 25.1506L53.3562 26.8877M52.9852 19.9007L53.3562 26.8877ZM53.3562 26.8877C53.9157 27.3606 54.6001 27.5916 55.2814 27.5916C55.8253 27.5916 56.3652 27.4404 56.8388 27.1509L58.3 28.6947V39.8067H54.2208C53.9727 31.9284 47.4908 25.5943 39.553 25.5943C31.6161 25.5943 25.1352 31.9284 24.8871 39.8067H23.1103C22.6391 39.8067 22.2578 40.1887 22.2578 40.6592V48.8994C22.2578 49.3704 22.6392 49.7518 23.1103 49.7518H62.1541C62.6246 49.7518 63.0065 49.3705 63.0065 48.8994V40.6592C63.0065 40.1877 62.6248 39.8057 62.1541 39.8057H60.0048M53.3562 26.8877L60.0048 39.8057ZM52.2562 22.0468C51.8013 22.5845 51.8687 23.3928 52.4065 23.8482L54.4576 25.5853L52.2562 22.0468ZM52.2562 22.0468C52.4768 21.7857 52.7854 21.6268 53.126 21.5988C53.1621 21.596 53.1977 21.5947 53.2337 21.5947C53.5351 21.5947 53.8248 21.7001 54.0575 21.8971L56.1091 23.6331C56.109 23.6331 56.1091 23.6332 56.1091 23.6331C56.6463 24.088 56.7139 24.8968 56.2584 25.435M52.2562 22.0468L56.2584 25.435ZM56.2584 25.435C55.8045 25.9721 54.9949 26.0397 54.4576 25.5853L56.2584 25.435ZM60.0048 39.8057V28.3549C60.0048 28.1368 59.9218 27.9275 59.7712 27.7688L60.0048 39.8057ZM39.553 27.2976C46.5505 27.2976 52.2683 32.8671 52.5155 39.8052H26.5924C26.8392 32.8675 32.5564 27.2976 39.553 27.2976ZM61.3017 48.0459H23.9627V41.5106H61.3017V48.0459Z" fill="#2766CF"/>
<path d="M55.1588 20.5961L57.2105 22.3323C58.2606 23.2207 58.5334 24.6828 57.9762 25.8727L59.7712 27.7688M55.1588 20.5961L59.7712 27.7688M55.1588 20.5961C54.5502 20.0819 53.7781 19.8353 52.9852 19.9007M55.1588 20.5961L52.9852 19.9007M59.7712 27.7688C59.9218 27.9275 60.0048 28.1368 60.0048 28.3549V39.8057M59.7712 27.7688L60.0048 39.8057M52.9852 19.9007C52.1908 19.9666 51.469 20.3383 50.9543 20.947C49.8928 22.2021 50.05 24.0881 51.3051 25.1506L53.3562 26.8877M52.9852 19.9007L53.3562 26.8877M53.3562 26.8877C53.9157 27.3606 54.6001 27.5916 55.2814 27.5916C55.8253 27.5916 56.3652 27.4404 56.8388 27.1509L58.3 28.6947V39.8067H54.2208C53.9727 31.9284 47.4908 25.5943 39.553 25.5943C31.6161 25.5943 25.1352 31.9284 24.8871 39.8067H23.1103C22.6391 39.8067 22.2578 40.1887 22.2578 40.6592V48.8994C22.2578 49.3704 22.6392 49.7518 23.1103 49.7518H62.1541C62.6246 49.7518 63.0065 49.3705 63.0065 48.8994V40.6592C63.0065 40.1877 62.6248 39.8057 62.1541 39.8057H60.0048M53.3562 26.8877L60.0048 39.8057M52.2562 22.0468C51.8013 22.5845 51.8687 23.3928 52.4065 23.8482L54.4576 25.5853M52.2562 22.0468L54.4576 25.5853M52.2562 22.0468C52.4768 21.7857 52.7854 21.6268 53.126 21.5988M52.2562 22.0468L56.2584 25.435M54.4576 25.5853C54.9949 26.0397 55.8045 25.9721 56.2584 25.435M54.4576 25.5853L56.2584 25.435M53.126 21.5988L53.1179 21.4992M53.126 21.5988C53.1621 21.596 53.1977 21.5947 53.2337 21.5947C53.5351 21.5947 53.8248 21.7001 54.0575 21.8971L56.1091 23.6331M56.1091 23.6331C56.1091 23.6332 56.109 23.6331 56.1091 23.6331ZM56.1091 23.6331C56.6463 24.088 56.7139 24.8968 56.2584 25.435M39.553 27.2976C46.5505 27.2976 52.2683 32.8671 52.5155 39.8052H26.5924C26.8392 32.8675 32.5564 27.2976 39.553 27.2976ZM61.3017 48.0459H23.9627V41.5106H61.3017V48.0459Z" stroke="#2766CF" stroke-width="0.2"/>
</g>
<defs>
<clipPath id="clip0_299_902">
<rect width="64" height="50" fill="white"/>
</clipPath>
</defs>
</svg>
