<svg width="61" height="57" viewBox="0 0 61 57" fill="none" xmlns="http://www.w3.org/2000/svg">
<g clip-path="url(#clip0_299_906)">
<path d="M0 5.19067C0 2.42925 2.23858 0.190674 5 0.190674H21.9297C32.9754 0.190674 41.9297 9.14498 41.9297 20.1907V46.1907C41.9297 48.9521 39.6911 51.1907 36.9297 51.1907H20C8.95431 51.1907 0 42.2364 0 31.1907V5.19067Z" fill="#2766CF" fill-opacity="0.12"/>
<path d="M50.9717 21.2783V21.2866C53.5057 21.2481 55.9556 22.2036 57.7951 23.9508C59.6594 25.7214 60.7439 28.1602 60.8101 30.7305C60.8763 33.3008 59.9187 35.7921 58.148 37.6564C56.3784 39.5196 53.9415 40.604 51.3729 40.6713C51.3081 40.6787 51.2427 40.6788 51.178 40.6715H47.9857C47.7523 40.6715 47.5285 40.5787 47.3635 40.4137C47.1985 40.2487 47.1057 40.0249 47.1057 39.7915C47.1057 39.5581 47.1985 39.3342 47.3635 39.1692C47.5285 39.0042 47.7523 38.9115 47.9857 38.9115H51.0381H51.163C52.2177 38.9119 53.262 38.7021 54.2347 38.2944C55.2075 37.8867 56.0893 37.2893 56.8285 36.5371C57.5678 35.7848 58.1498 34.8927 58.5405 33.913C58.9312 32.9333 59.1227 31.8856 59.104 30.831C59.0852 29.7765 58.8565 28.7362 58.4312 27.771C58.0059 26.8058 57.3926 25.935 56.627 25.2095C55.8614 24.4841 54.9589 23.9184 53.9723 23.5456C52.9856 23.1728 51.9346 23.0003 50.8805 23.0382L50.877 23.0383C49.3905 23.0391 47.9316 23.4402 46.6536 24.1994C46.52 24.2793 46.3676 24.3223 46.2119 24.324C46.0562 24.3258 45.9028 24.2861 45.7674 24.2092C45.6319 24.1322 45.5194 24.0207 45.4411 23.886C45.3629 23.7513 45.3219 23.5982 45.3221 23.4425M50.9717 21.2783L22.6585 26.5852C22.3393 25.5432 22.1761 24.4597 22.1741 23.3699C22.1741 17.1458 27.3634 12.0819 33.7481 12.0819C40.133 12.0819 45.3221 17.1511 45.3221 23.3491V23.3502V23.3512V23.3523V23.3534V23.3545V23.3557V23.3569V23.3581V23.3593V23.3603V23.3614V23.3625V23.3636V23.3647V23.3658V23.367V23.368V23.3692V23.3704V23.3715V23.3728V23.3741V23.3752V23.3763V23.3774V23.3786V23.3797V23.3809V23.3821V23.3832V23.3844V23.3856V23.3868V23.3881V23.3893V23.3905V23.3917V23.393V23.3942V23.3955V23.3965V23.3977V23.3989V23.4002V23.4014V23.4027V23.4037V23.4049V23.4061V23.4074V23.4086V23.4098V23.411V23.4122V23.4134V23.4144V23.4156V23.4167V23.4177V23.4188V23.4199V23.4211V23.4222V23.4233V23.4244V23.4255V23.4267V23.4278V23.429V23.4302V23.4312V23.4323V23.4334V23.4345V23.4357V23.4369V23.438V23.4391V23.4401V23.4413V23.4425M50.9717 21.2783H50.8717ZM50.9717 21.2783H50.8717ZM45.3221 23.4425L45.4221 23.4427ZM45.3221 23.4425L45.4221 23.4427ZM45.4221 23.4427C45.4219 23.5807 45.4583 23.7164 45.5276 23.8358L33.7481 11.9819C40.1857 11.9819 45.4221 17.0935 45.4221 23.3491V23.4427ZM50.8717 21.2783C49.5473 21.2784 48.2364 21.5408 47.0148 22.0501C46.6421 18.8281 45.0997 15.8531 42.6778 13.6911C40.2225 11.4992 37.039 10.2999 33.7477 10.3271C26.4148 10.3273 20.4141 16.1782 20.4141 23.3751C20.4141 24.1349 20.4822 24.8932 20.6176 25.6407C19.6156 25.4549 18.5859 25.4728 17.5901 25.6939C16.5461 25.9256 15.5628 26.3755 14.7047 27.0139C13.8467 27.6524 13.1333 28.465 12.6114 29.3985C12.0895 30.332 11.7708 31.3653 11.6762 32.4306C11.5816 33.4959 11.7133 34.5692 12.0627 35.58C12.412 36.5908 12.971 37.5164 13.7032 38.296C14.4353 39.0756 15.324 39.6917 16.3109 40.1037C17.2975 40.5156 18.3599 40.7144 19.4286 40.6871H19.6873C19.9207 40.6871 20.1446 40.5943 20.3096 40.4293C20.4746 40.2643 20.5673 40.0405 20.5673 39.8071C20.5673 39.5737 20.4746 39.3498 20.3096 39.1848C20.1446 39.0198 19.9207 38.9271 19.6873 38.9271H19.4273M50.8717 21.2783L19.4273 38.9271ZM19.4273 38.9271H19.4244ZM19.4273 38.9271H19.4244ZM19.4244 38.9271C18.6462 38.9502 17.8714 38.8168 17.1457 38.535C16.42 38.2531 15.7583 37.8285 15.1997 37.2862C14.6411 36.744 14.1971 36.0951 13.8938 35.3781C13.5906 34.6611 13.4343 33.8906 13.4343 33.1121C13.4343 32.3336 13.5906 31.563 13.8938 30.846C14.1971 30.129 14.6411 29.4801 15.1997 28.9379C15.7583 28.3956 16.42 27.971 17.1457 27.6891C17.8714 27.4073 18.6462 27.2739 19.4244 27.2971H19.4271M19.4244 38.9271L19.4271 27.2971ZM19.4271 27.2971C20.1394 27.2986 20.8459 27.425 21.5145 27.6705ZM19.4271 27.2971L21.5145 27.6705ZM21.5145 27.6705C21.6684 27.727 21.8351 27.7393 21.9956 27.7062ZM21.5145 27.6705L21.9956 27.7062ZM21.9956 27.7062C22.1562 27.673 22.3043 27.5956 22.4232 27.4828ZM21.9956 27.7062L22.4232 27.4828ZM22.4232 27.4828C22.5421 27.3699 22.6272 27.2261 22.6688 27.0675ZM22.4232 27.4828L22.6688 27.0675ZM22.6688 27.0675C22.7103 26.909 22.7067 26.7418 22.6585 26.5852L22.6688 27.0675Z" fill="#2766CF"/>
<path d="M50.9717 21.2783V21.2866C53.5057 21.2481 55.9556 22.2036 57.7951 23.9508C59.6594 25.7214 60.7439 28.1602 60.8101 30.7305C60.8763 33.3008 59.9187 35.7921 58.148 37.6564C56.3784 39.5196 53.9415 40.604 51.3729 40.6713C51.3081 40.6787 51.2427 40.6788 51.178 40.6715H47.9857C47.7523 40.6715 47.5285 40.5787 47.3635 40.4137C47.1985 40.2487 47.1057 40.0249 47.1057 39.7915C47.1057 39.5581 47.1985 39.3342 47.3635 39.1692C47.5285 39.0042 47.7523 38.9115 47.9857 38.9115H51.0381H51.163C52.2177 38.9119 53.262 38.7021 54.2347 38.2944C55.2075 37.8867 56.0893 37.2893 56.8285 36.5371C57.5678 35.7848 58.1498 34.8927 58.5405 33.913C58.9312 32.9333 59.1227 31.8856 59.104 30.831C59.0852 29.7765 58.8565 28.7362 58.4312 27.771C58.0059 26.8058 57.3926 25.935 56.627 25.2095C55.8614 24.4841 54.9589 23.9184 53.9723 23.5456C52.9856 23.1728 51.9346 23.0003 50.8805 23.0382L50.877 23.0383C49.3905 23.0391 47.9316 23.4402 46.6536 24.1994C46.52 24.2793 46.3676 24.3223 46.2119 24.324C46.0562 24.3258 45.9028 24.2861 45.7674 24.2092C45.6319 24.1322 45.5194 24.0207 45.4411 23.886C45.3629 23.7513 45.3219 23.5982 45.3221 23.4425M50.9717 21.2783L22.6585 26.5852M50.9717 21.2783H50.8717M45.3221 23.4425V23.4413V23.4401V23.4391V23.438V23.4369V23.4357V23.4345V23.4334V23.4323V23.4312V23.4302V23.429V23.4278V23.4267V23.4255V23.4244V23.4233V23.4222V23.4211V23.4199V23.4188V23.4177V23.4167V23.4156V23.4144V23.4134V23.4122V23.411V23.4098V23.4086V23.4074V23.4061V23.4049V23.4037V23.4027V23.4014V23.4002V23.3989V23.3977V23.3965V23.3955V23.3942V23.393V23.3917V23.3905V23.3893V23.3881V23.3868V23.3856V23.3844V23.3832V23.3821V23.3809V23.3797V23.3786V23.3774V23.3763V23.3752V23.3741V23.3728V23.3715V23.3704V23.3692V23.368V23.367V23.3658V23.3647V23.3636V23.3625V23.3614V23.3603V23.3593V23.3581V23.3569V23.3557V23.3545V23.3534V23.3523V23.3512V23.3502V23.3491C45.3221 17.1511 40.133 12.0819 33.7481 12.0819C27.3634 12.0819 22.1741 17.1458 22.1741 23.3699C22.1761 24.4597 22.3393 25.5432 22.6585 26.5852M45.3221 23.4425L45.4221 23.4427M22.6585 26.5852C22.7067 26.7418 22.7103 26.909 22.6688 27.0675M22.6585 26.5852L22.6688 27.0675M50.8717 21.2783C49.5473 21.2784 48.2364 21.5408 47.0148 22.0501C46.6421 18.8281 45.0997 15.8531 42.6778 13.6911C40.2225 11.4992 37.039 10.2999 33.7477 10.3271C26.4148 10.3273 20.4141 16.1782 20.4141 23.3751C20.4141 24.1349 20.4822 24.8932 20.6176 25.6407C19.6156 25.4549 18.5859 25.4728 17.5901 25.6939C16.5461 25.9256 15.5628 26.3755 14.7047 27.0139C13.8467 27.6524 13.1333 28.465 12.6114 29.3985C12.0895 30.332 11.7708 31.3653 11.6762 32.4306C11.5816 33.4959 11.7133 34.5692 12.0627 35.58C12.412 36.5908 12.971 37.5164 13.7032 38.296C14.4353 39.0756 15.324 39.6917 16.3109 40.1037C17.2975 40.5156 18.3599 40.7144 19.4286 40.6871H19.6873C19.9207 40.6871 20.1446 40.5943 20.3096 40.4293C20.4746 40.2643 20.5673 40.0405 20.5673 39.8071C20.5673 39.5737 20.4746 39.3498 20.3096 39.1848C20.1446 39.0198 19.9207 38.9271 19.6873 38.9271H19.4273M50.8717 21.2783L19.4273 38.9271M45.4221 23.4427C45.4219 23.5807 45.4583 23.7164 45.5276 23.8358L33.7481 11.9819C40.1857 11.9819 45.4221 17.0935 45.4221 23.3491V23.4427ZM19.4273 38.9271H19.4244M19.4244 38.9271C18.6462 38.9502 17.8714 38.8168 17.1457 38.535C16.42 38.2531 15.7583 37.8285 15.1997 37.2862C14.6411 36.744 14.1971 36.0951 13.8938 35.3781C13.5906 34.6611 13.4343 33.8906 13.4343 33.1121C13.4343 32.3336 13.5906 31.563 13.8938 30.846C14.1971 30.129 14.6411 29.4801 15.1997 28.9379C15.7583 28.3956 16.42 27.971 17.1457 27.6891C17.8714 27.4073 18.6462 27.2739 19.4244 27.2971H19.4271M19.4244 38.9271L19.4271 27.2971M19.4271 27.2971C20.1394 27.2986 20.8459 27.425 21.5145 27.6705M19.4271 27.2971L21.5145 27.6705M21.5145 27.6705C21.6684 27.727 21.8351 27.7393 21.9956 27.7062M21.5145 27.6705L21.9956 27.7062M21.9956 27.7062C22.1562 27.673 22.3043 27.5956 22.4232 27.4828M21.9956 27.7062L22.4232 27.4828M22.4232 27.4828C22.5421 27.3699 22.6272 27.2261 22.6688 27.0675M22.4232 27.4828L22.6688 27.0675" stroke="#2766CF" stroke-width="0.2"/>
<path d="M48.8812 49.063L48.8786 49.0654L44.1406 53.8035V30.9674C44.1406 30.734 44.0478 30.5101 43.8828 30.3451C43.7178 30.1801 43.4939 30.0874 43.2606 30.0874C43.0272 30.0874 42.8033 30.1801 42.6383 30.3451C42.4733 30.5101 42.3806 30.734 42.3806 30.9674V53.8035L37.6437 49.0667C37.5634 48.9808 37.4667 48.9119 37.3593 48.8641C37.2513 48.816 37.1348 48.7901 37.0166 48.788C36.8985 48.7859 36.7811 48.8077 36.6715 48.8519C36.562 48.8962 36.4624 48.9621 36.3788 49.0456C36.2953 49.1292 36.2294 49.2287 36.1851 49.3383C36.1409 49.4479 36.1192 49.5653 36.1212 49.6834C36.1233 49.8016 36.1492 49.9181 36.1973 50.0261C36.2451 50.1334 36.314 50.2302 36.3999 50.3105L42.6386 56.5493C42.8036 56.7141 43.0274 56.8067 43.2606 56.8067C43.4938 56.8067 43.7174 56.7141 43.8824 56.5493L50.1225 50.3093L50.1249 50.3067C50.2804 50.1399 50.365 49.9193 50.361 49.6913C50.3569 49.4633 50.2646 49.2458 50.1034 49.0846C49.9421 48.9233 49.7246 48.831 49.4966 48.8269C49.2686 48.8229 49.048 48.9076 48.8812 49.063Z" fill="#2766CF" stroke="#2766CF" stroke-width="0.2"/>
<path d="M36.6036 36.5876L36.6011 36.585L30.3611 30.345C30.1961 30.1802 29.9724 30.0876 29.7392 30.0876C29.506 30.0876 29.2823 30.1802 29.1173 30.345L22.8773 36.585L22.8748 36.5876C22.7194 36.7544 22.6348 36.975 22.6388 37.203C22.6428 37.431 22.7352 37.6485 22.8964 37.8098C23.0576 37.971 23.2752 38.0633 23.5031 38.0674C23.7311 38.0714 23.9518 37.9868 24.1186 37.8313L24.1211 37.8289L28.8592 33.0908V55.927C28.8592 56.1603 28.9519 56.3842 29.1169 56.5492C29.282 56.7142 29.5058 56.807 29.7392 56.807C29.9726 56.807 30.1964 56.7142 30.3615 56.5492C30.5265 56.3842 30.6192 56.1603 30.6192 55.927V33.0908L35.3573 37.8289L35.3598 37.8313C35.5266 37.9868 35.7473 38.0714 35.9753 38.0674C36.2033 38.0633 36.4208 37.971 36.582 37.8098C36.7432 37.6485 36.8356 37.431 36.8396 37.203C36.8436 36.975 36.759 36.7544 36.6036 36.5876Z" fill="#2766CF" stroke="#2766CF" stroke-width="0.2"/>
<path d="M40.3522 21.3911L40.3563 21.4009C40.4506 21.5964 40.6138 21.7501 40.8145 21.8325C41.0153 21.915 41.2394 21.9203 41.4439 21.8476C41.6483 21.7748 41.8187 21.6291 41.9222 21.4384C42.0258 21.2476 42.0552 21.0254 42.0048 20.8143L42.0017 20.8038C41.4028 19.1274 40.306 17.6739 38.8583 16.638C37.4106 15.602 35.681 15.033 33.901 15.0071H33.8995C33.6661 15.0071 33.4423 15.0998 33.2773 15.2648C33.1122 15.4299 33.0195 15.6537 33.0195 15.8871C33.0195 16.1205 33.1122 16.3443 33.2773 16.5093C33.4421 16.6742 33.6656 16.7669 33.8987 16.7671C35.3169 16.7898 36.6945 17.2445 37.8476 18.0706C39.0008 18.8969 39.8746 20.0553 40.3522 21.3911Z" fill="#2766CF" stroke="#2766CF" stroke-width="0.2"/>
</g>
<defs>
<clipPath id="clip0_299_906">
<rect width="61" height="57" fill="white"/>
</clipPath>
</defs>
</svg>
