<svg width="54" height="58" viewBox="0 0 54 58" fill="none" xmlns="http://www.w3.org/2000/svg">
<g clip-path="url(#clip0_299_912)">
<path d="M0 5C0 2.23858 2.23858 0 5 0H21.9297C32.9754 0 41.9297 8.95431 41.9297 20V46C41.9297 48.7614 39.6911 51 36.9297 51H20C8.95431 51 0 42.0457 0 31V5Z" fill="#2766CF" fill-opacity="0.12"/>
<path d="M53.6824 28.3153C53.74 19.295 46.4488 11.9095 37.4291 11.8514C28.3971 11.7978 21.0233 19.085 20.9652 28.1047C20.9234 34.6285 24.7265 40.2948 30.2465 42.9548L30.3 57.2048C30.301 57.5108 30.4841 57.7861 30.7655 57.9054C30.8619 57.9467 30.9639 57.9666 31.0648 57.9666C31.2581 57.9666 31.4482 57.8932 31.5936 57.755L37.246 52.3559L42.9368 57.7173C43.1591 57.9273 43.4864 57.9829 43.7653 57.8621C44.0457 57.7407 44.2267 57.4639 44.2257 57.1579L44.1773 43.0588C49.7487 40.4763 53.6406 34.8514 53.6824 28.3153ZM42.69 55.3836L37.7661 50.7452C37.4704 50.4663 37.0079 50.4678 36.7137 50.7488L31.823 55.4203L31.7786 43.5978C33.4796 44.2127 35.3095 44.5563 37.2185 44.5686C37.2542 44.5686 37.2894 44.5691 37.3251 44.5691C39.1882 44.5691 40.9783 44.2514 42.6492 43.6743L42.69 55.3836ZM37.3251 43.0395C37.2935 43.0395 37.2603 43.039 37.2287 43.039C29.0518 42.9864 22.4423 36.2918 22.4953 28.1144C22.5478 19.9696 29.19 13.3805 37.323 13.3805C37.3546 13.3805 37.3878 13.3805 37.4194 13.3805C45.5958 13.4335 52.2053 20.1282 52.1528 28.3051C52.1008 36.4498 45.4581 43.0395 37.3251 43.0395Z" fill="#2766CF"/>
<path d="M44.7592 25.8601L40.1091 25.1544L38.0564 20.9255C37.9294 20.6634 37.6643 20.4967 37.3736 20.4946C37.3736 20.4946 37.3706 20.4946 37.3685 20.4946C37.0794 20.4946 36.8148 20.6578 36.6848 20.9168L34.578 25.1192L29.9213 25.7647C29.6332 25.805 29.392 26.0049 29.3008 26.2812C29.209 26.5576 29.2819 26.862 29.4894 27.0664L32.8347 30.3699L32.0108 34.9986C31.9598 35.2851 32.0755 35.5757 32.3101 35.7486C32.5446 35.9214 32.8567 35.9454 33.1152 35.8118L37.2895 33.651L41.4384 35.8653C41.5516 35.9255 41.675 35.9556 41.7984 35.9556C41.9554 35.9556 42.1114 35.9072 42.244 35.8123C42.4806 35.643 42.6004 35.3539 42.553 35.0664L41.7882 30.4275L45.1758 27.1669C45.3853 26.965 45.4623 26.6616 45.3746 26.3842C45.2854 26.1073 45.0478 25.9039 44.7592 25.8601ZM40.4375 29.6046C40.2565 29.779 40.1718 30.0313 40.2131 30.2802L40.7913 33.7866L37.6551 32.1122C37.5424 32.052 37.4185 32.0219 37.2946 32.0219C37.1738 32.0219 37.0534 32.0505 36.9433 32.1076L33.7882 33.7407L34.4108 30.2419C34.4551 29.9941 34.3746 29.7407 34.1951 29.5638L31.6666 27.0669L35.1868 26.5785C35.4361 26.5438 35.6528 26.3888 35.7655 26.1639L37.3578 22.9879L38.9094 26.1843C39.0195 26.4107 39.2342 26.5688 39.483 26.6065L42.9986 27.1398L40.4375 29.6046Z" fill="#2766CF"/>
</g>
<defs>
<clipPath id="clip0_299_912">
<rect width="54" height="58" fill="white"/>
</clipPath>
</defs>
</svg>
