<svg width="68" height="62" viewBox="0 0 68 62" fill="none" xmlns="http://www.w3.org/2000/svg">
<g clip-path="url(#clip0_299_893)">
<path d="M0.5 6.14087C0.5 3.37945 2.73858 1.14087 5.5 1.14087H22.4297C33.4754 1.14087 42.4297 10.0952 42.4297 21.1409V47.1409C42.4297 49.9023 40.1911 52.1409 37.4297 52.1409H20.5C9.45431 52.1409 0.5 43.1866 0.5 32.1409V6.14087Z" fill="#2766CF" fill-opacity="0.12"/>
<path d="M66.2486 27.9576L66.2533 27.9542C66.4857 27.78 66.6775 27.5343 66.6775 27.2156C66.6775 26.9092 66.4973 26.6006 66.244 26.4706L45.3393 12.4244L45.335 12.4217C45.0289 12.238 44.6052 12.238 44.2991 12.4217L44.295 12.4243L18.5059 29.6536C18.4475 29.6833 18.3982 29.7157 18.3553 29.7586C18.311 29.8029 18.2778 29.8541 18.2474 29.915C18.2404 29.9288 18.2368 29.9442 18.2368 29.9597V29.9608V29.9618V29.9629V29.9639V29.965V29.966V29.9671V29.9681V29.9692V29.9702V29.9713V29.9723V29.9735V29.9746V29.9758V29.9769V29.978V29.9791V29.9802V29.9814V29.9825V29.9836V29.9847C18.1862 30.0659 18.1577 30.1394 18.1427 30.2145C18.127 30.2929 18.127 30.3701 18.127 30.4486V30.4536V45.546C18.127 45.8525 18.3073 46.1611 18.5607 46.2911L39.4655 60.2276C39.6352 60.3407 39.7654 60.4091 39.9601 60.4091C40.1411 60.4091 40.33 60.3501 40.4624 60.2224L66.3037 42.9949L66.3082 42.9917C66.5405 42.8174 66.7324 42.5718 66.7324 42.2531C66.7324 42.2476 66.7319 42.2421 66.731 42.2367C66.6737 41.8926 66.4997 41.5845 66.2441 41.4533L62.2321 38.7425V30.6171L66.2486 27.9576ZM24.3817 32.8998C24.3529 32.8731 24.3215 32.8539 24.3062 32.8447C24.3003 32.8205 24.2855 32.7991 24.2643 32.785L20.6581 30.3986L44.8444 14.3289L64.0911 27.16L61.0451 29.1557C60.8721 29.216 60.7033 29.3286 60.5868 29.4428L39.9051 43.2306L24.3817 32.8998ZM24.6933 35.3603L39.3558 45.1353L39.3598 45.1378C39.6659 45.3215 40.0896 45.3215 40.3957 45.1378L40.3997 45.1352L60.3857 31.7931V38.3027L40.0141 51.7381L24.6933 41.924V35.3603ZM23.3259 43.2112L23.3319 43.2154L39.5683 53.6374C39.6405 53.7057 39.7271 53.7377 39.8118 53.7531C39.8962 53.7684 39.9862 53.7684 40.0654 53.7684H40.0698C40.2544 53.7684 40.4345 53.7077 40.5536 53.6481L40.5638 53.6422L61.0337 40.1781L64.0931 42.2523L39.9053 58.323L19.9186 44.9985V32.1754L22.9017 34.1298V42.4178C22.9017 42.7298 23.0866 43.0317 23.3259 43.2112Z" fill="#2766CF" stroke="#2766CF" stroke-width="0.2" stroke-linecap="round" stroke-linejoin="round"/>
<path d="M41.2187 21.8083L41.2203 21.8094L50.9892 28.505L50.9902 28.5057C51.1644 28.6218 51.3483 28.6871 51.4848 28.6871C51.6356 28.6871 51.7767 28.6568 51.9042 28.5851C52.0308 28.5139 52.1379 28.4053 52.227 28.2578C52.534 27.8243 52.405 27.2712 51.9819 26.9691L51.9806 26.9681L42.2679 20.2735C42.2682 20.2737 42.2677 20.2734 42.2679 20.2735C41.8341 19.9642 41.2787 20.0925 40.9759 20.5163C40.6659 20.9503 40.7946 21.5054 41.2187 21.8083Z" fill="#2766CF"/>
<path d="M42.2679 20.2735L51.9806 26.9681L51.9819 26.9691C52.405 27.2712 52.534 27.8243 52.227 28.2578C52.1379 28.4053 52.0308 28.5139 51.9042 28.5851C51.7767 28.6568 51.6356 28.6871 51.4848 28.6871C51.3483 28.6871 51.1644 28.6218 50.9902 28.5057L50.9892 28.505L41.2203 21.8094L41.2187 21.8083C40.7946 21.5054 40.6659 20.9503 40.9759 20.5163C41.2787 20.0925 41.8341 19.9642 42.2679 20.2735ZM42.2679 20.2735C42.2677 20.2734 42.2682 20.2737 42.2679 20.2735Z" stroke="#2766CF" stroke-width="0.2" stroke-linecap="round" stroke-linejoin="round"/>
</g>
<defs>
<clipPath id="clip0_299_893">
<rect width="67" height="61" fill="white" transform="translate(0.5 0.5)"/>
</clipPath>
</defs>
</svg>
